# xmcd
#
# Track frame offsets: 
#        150
#        17820
#        38630
#        66287
#        89832
#        105000
#        127900
#        145475
#        161010
#        176085
#        194737
#        215650
#
# Disc length: 3104 seconds
#
# Revision: 2
# Processed by: cddbd v1.5.2PL0 Copyright (c) Steve Scherf et al.
# Submitted via: ExactAudioCopyFreeDBPlugin 1.0
#
DISCID=af0c1e0c
DTITLE=Colors Of Jazz - For Tropical Nights
DYEAR=1990
DGENRE=Fusion
TTITLE0=One More Night
TTITLE1=St. Thomas
TTITLE2=Killing Me Softly With His Song
TTITLE3=The Island
TTITLE4=Lucky Southern
TTITLE5=Every Breath You Take
TTITLE6=Theme From "Black Orpheus"
TTITLE7=Don't You Worry 'Bout A Thing
TTITLE8=Michelle
TTITLE9=My Little Suede Shoes
TTITLE10=Sweet Love
TTITLE11=Quiet Nights Of Quiet Stars
EXTD=
EXTT0=
EXTT1=
EXTT2=
EXTT3=
EXTT4=
EXTT5=
EXTT6=
EXTT7=
EXTT8=
EXTT9=
EXTT10=
EXTT11=
PLAYORDER=
